<svg width="20" height="21" viewBox="0 0 20 21" fill="none" xmlns="http://www.w3.org/2000/svg">
<path fill-rule="evenodd" clip-rule="evenodd" d="M11.0856 3.66779C11.2958 3.54765 11.5361 3.42751 11.7463 3.27733C12.287 2.88687 12.9177 2.61655 13.5485 2.37627C14.4495 2.01584 15.3506 1.65541 16.2517 1.32502C16.4319 1.26495 16.522 1.14481 16.6121 1.02467C16.8223 1.02467 17.0026 1.14481 17.1227 1.29499C17.393 1.62538 17.6333 1.9858 17.7835 2.4063C18.1439 3.42751 18.3241 4.47875 18.1439 5.56003C18.0238 6.28088 17.7234 6.94167 17.0626 7.3922C16.7623 7.60245 16.4319 7.8127 16.1315 8.05299C16.1315 8.17313 16.2817 8.17313 16.3418 8.20316C16.9124 8.44345 17.4231 8.77383 17.8736 9.16429C18.204 9.43461 18.4142 9.79505 18.5344 10.1855C18.6245 10.4258 18.7446 10.6661 18.8047 10.9064C18.9849 11.6272 19.2552 12.318 19.2252 13.0689C19.1952 13.3993 19.2552 13.7597 19.3153 14.0901C19.4054 14.5707 19.075 14.811 18.6245 14.8711C18.4142 14.9011 18.1739 14.9011 17.9637 14.9311C17.7534 14.9612 17.5132 15.0212 17.3029 15.0813C17.0927 15.1414 16.8824 15.1414 16.6421 15.1414C16.0114 15.1113 15.4407 14.9011 14.87 14.6908C14.7199 15.1414 14.5997 15.5619 14.4796 15.9824C14.4495 16.1025 14.3895 16.2227 14.3294 16.3128C13.9089 16.8834 13.4584 17.4241 12.8877 17.8446C12.4972 18.1149 12.1068 18.4152 11.7163 18.6856C11.2057 19.076 10.7552 19.5266 10.4548 20.0972C10.3647 20.2474 10.2446 20.3676 10.0944 20.4577C9.97423 20.5478 9.82406 20.4877 9.76398 20.3375C9.70391 20.0972 9.64384 19.887 9.55374 19.6467C9.5237 19.4965 9.46363 19.3464 9.40356 19.1962C9.07317 18.4753 8.71274 17.7845 8.29224 17.0937C7.99189 16.6131 7.75161 16.1025 7.48129 15.5919C7.27104 15.2014 7.241 14.811 7.27103 14.3905C7.27103 14.3004 7.30107 14.2103 7.30107 14.0901C6.97068 14.2103 6.70036 14.3304 6.4 14.4205C6.18975 14.4806 5.97951 14.5707 5.73922 14.6007C5.55901 14.6308 5.40883 14.6308 5.22862 14.6308C5.13851 14.6308 5.01837 14.6007 4.92826 14.6308C4.35759 14.811 3.81694 14.6608 3.36641 14.3004C2.91588 13.97 2.52542 13.5795 2.10492 13.2491C1.95474 13.129 1.77453 13.0389 1.65439 12.9187C1.26392 12.5883 0.87346 12.288 0.513033 11.9576C0.362856 11.8375 0.242713 11.6572 0.0625 11.477C0.272749 11.3869 0.452963 11.2968 0.603141 11.2368C1.20385 10.9965 1.80457 10.7562 2.37524 10.4859C2.82577 10.2756 3.1862 9.97526 3.51659 9.61483C3.96712 9.13426 4.47773 8.80387 4.98833 8.41341C5.13851 8.29326 5.31872 8.26323 5.49894 8.17312C5.58904 8.14309 5.67915 8.08302 5.76926 8.05299C5.73922 7.99291 5.70919 7.96288 5.67915 7.93284C5.13851 7.63249 4.89822 7.12188 4.71801 6.58124C4.5378 6.07064 4.44769 5.52999 4.38762 4.95932C4.29752 4.08829 4.32755 3.18722 4.38762 2.31619C4.38762 2.10594 4.41766 1.86566 4.41766 1.65541C4.41766 1.41512 4.47773 1.17484 4.68798 0.994631C4.80812 0.904524 4.86819 0.754343 4.9583 0.634201C5.07844 0.484023 5.19858 0.453993 5.3788 0.574135C5.40883 0.604171 5.4689 0.634203 5.49894 0.664238C5.85936 0.994629 6.33993 1.1448 6.76043 1.35505C6.8205 1.38509 6.85054 1.41513 6.91061 1.41513C7.7516 1.50523 8.50249 1.95577 9.34349 2.07591C9.46363 2.10595 9.58377 2.19605 9.70392 2.25612C9.97424 2.4964 10.2746 2.70666 10.5449 2.94694C10.7251 3.15719 10.8753 3.39747 11.0856 3.66779ZM11.2357 10.9965C11.3258 10.9664 11.3559 10.9364 11.3559 10.9664C11.7163 11.0866 11.9866 11.2968 12.1969 11.6272C12.287 11.8074 12.3771 11.9576 12.4972 12.1078C12.8576 12.7085 12.9778 13.3693 12.8877 14.0601C12.7675 14.9011 12.6174 15.712 12.287 16.523C12.0467 17.0336 11.8064 17.5442 11.5361 18.0548C11.506 18.1149 11.446 18.175 11.5661 18.235C11.6262 18.205 11.6863 18.175 11.7163 18.1449C12.0167 17.9046 12.287 17.6644 12.6174 17.4241C13.0679 17.0636 13.4283 16.6131 13.7587 16.1626C13.8263 16.0613 13.8862 15.9584 13.9389 15.854C14.1205 15.4944 14.216 15.1166 14.2393 14.7209C14.2994 14.1202 14.1792 13.5195 13.9389 12.9488C13.6986 12.4081 13.3983 11.8675 13.0078 11.417C12.9177 11.3269 12.7976 11.2067 12.7075 11.1466C12.1668 10.8463 11.6262 10.576 11.1156 10.3057C10.9654 10.4558 10.8152 10.576 10.6651 10.6961C10.4548 10.8763 10.1845 11.0565 10.0043 11.2968C9.79402 11.5972 9.49366 11.8375 9.22334 12.1078C8.83288 12.4982 8.47246 12.9187 8.26221 13.4293C8.23217 13.5195 8.1721 13.5795 8.11203 13.6396C7.69153 14.2103 7.63146 14.811 7.93182 15.4417C8.11203 15.8622 8.32228 16.2527 8.53253 16.6432C8.98306 17.394 9.4336 18.175 9.70392 18.9859C9.76399 19.1661 9.82406 19.3764 9.88413 19.5866C9.91417 19.7668 9.94419 19.917 10.0944 20.0672C10.1845 19.857 10.2446 19.6767 10.3347 19.4965C10.4548 19.2863 10.5749 19.1361 10.6951 18.9258C10.7552 18.8658 10.7852 18.7757 10.8152 18.6856C11.0255 18.235 11.2357 17.7845 11.476 17.334C12.0167 16.2827 12.347 15.2014 12.4972 14.0301C12.5873 13.4594 12.4672 12.8887 12.2269 12.3781C11.9866 11.9276 11.7764 11.447 11.3559 11.0866C11.2658 11.0866 11.2658 11.0265 11.2357 10.9965ZM10.8152 10.0954C10.4548 9.82508 10.1244 9.55476 9.85409 9.22437C9.49367 8.80387 9.0131 8.47348 8.50249 8.2332C8.11203 8.05299 7.69153 8.05298 7.27103 8.11305C6.94064 8.17312 6.64029 8.29327 6.3099 8.3233C5.8894 8.38337 5.49893 8.53355 5.16854 8.7438C4.68797 9.10423 4.17737 9.43462 3.78691 9.91518C3.45652 10.2756 3.09609 10.606 2.64556 10.8163C2.07488 11.0866 1.50421 11.2968 0.933534 11.5371C0.873463 11.5671 0.81339 11.5972 0.753319 11.6573C1.08371 11.9276 1.35403 12.258 1.68442 12.4382C2.07488 12.6484 2.40528 12.9187 2.73567 13.1891C3.09609 13.4894 3.39645 13.7898 3.87702 13.8498C3.93709 13.8498 3.96713 13.8799 4.0272 13.9099C4.41766 14.1202 4.83816 14.1502 5.28869 14.1202C6.06961 14.0601 6.79047 13.7597 7.48129 13.3993C7.60143 13.3392 7.72157 13.2191 7.7516 13.099C7.87175 12.7986 8.11203 12.5883 8.26221 12.3481C8.32228 12.258 8.41239 12.2279 8.38235 12.0777C8.26221 12.1078 8.14207 12.1378 8.05196 12.1979C7.63146 12.4382 7.21096 12.5884 6.76043 12.7085C6.33993 12.8286 5.91944 12.9488 5.49894 12.9788C4.9583 13.0089 4.44769 12.9187 3.90705 12.8887C3.81695 12.8887 3.72684 12.8587 3.66677 12.7986C3.6067 12.7686 3.54663 12.7085 3.63673 12.5884C4.08727 12.7385 4.56783 12.6484 5.0484 12.6184C5.91943 12.5883 6.70036 12.3481 7.51132 12.0177C8.05196 11.8074 8.56256 11.5371 9.07317 11.3269C9.28341 11.2368 9.49366 11.1166 9.67388 10.9064C9.79402 10.7562 9.9442 10.6661 10.1244 10.576C10.3647 10.4558 10.605 10.3056 10.8152 10.0954ZM5.16854 0.934556C4.92826 1.44516 4.92826 1.44516 4.89823 1.95576C4.89823 2.04587 4.89822 2.16601 4.86819 2.25612C4.77808 3.27733 4.74805 4.29854 4.89823 5.31975C4.98833 5.92046 5.13851 6.52117 5.43887 7.03178C5.8894 7.75263 6.43004 7.9028 7.09082 7.69255C7.18093 7.66252 7.30107 7.66252 7.30107 7.57241C7.03075 7.36217 6.79047 7.18195 6.55018 7.00174C6.12968 6.70139 5.85936 6.28089 5.49894 5.92046C5.31872 5.74025 5.19858 5.43989 5.10847 5.19961C4.98833 4.92929 5.04841 4.5989 5.22862 4.29854C5.22862 4.83918 5.43887 5.22964 5.73922 5.59007C5.97951 5.89042 6.27986 6.19078 6.55018 6.43107C7.09082 6.91164 7.69153 7.33213 8.38235 7.60245C8.47246 7.63249 8.56256 7.69256 8.65267 7.75263C9.25338 8.14309 9.79402 8.56359 10.3046 9.10423C10.4548 9.25441 10.4548 9.25441 10.7552 9.37455L10.7852 9.34451C10.7552 9.28444 10.7552 9.2544 10.7251 9.19433C10.4248 8.65369 10.1845 8.08302 10.0944 7.45227C10.0043 6.91163 9.97423 6.37099 10.0043 5.80032C10.0343 5.25968 10.1845 4.7791 10.5149 4.35861C10.605 4.2685 10.635 4.14836 10.6951 4.05825C10.5149 3.7579 10.3947 3.45755 10.1244 3.2473C9.88413 3.06708 9.67388 2.85684 9.46363 2.67662C9.34349 2.58652 9.25338 2.52644 9.1032 2.49641C8.29224 2.34623 7.54136 1.95576 6.7304 1.80559C6.70036 1.80559 6.67032 1.77556 6.64029 1.77556C6.15972 1.53527 5.64911 1.38509 5.25865 0.964594C5.28869 0.964594 5.22861 0.964592 5.16854 0.934556ZM15.4407 7.99291C15.5308 7.93284 15.6209 7.8127 15.711 7.78267C16.1315 7.60245 16.4319 7.27206 16.7623 6.9717C17.2428 6.52117 17.4831 5.92046 17.5432 5.28971C17.6333 4.23847 17.4531 3.18723 17.0626 2.19605C16.9725 1.9858 16.8824 1.74552 16.7322 1.5653C16.4018 1.74552 16.0715 1.8957 15.7411 2.04588C15.5308 2.13598 15.3806 2.25612 15.2905 2.46637C15.2305 2.58651 15.1704 2.67662 15.0803 2.73669C14.7799 2.94694 14.4796 3.15719 14.1792 3.30736C13.9089 3.45754 13.6986 3.60772 13.4584 3.81797C13.2781 3.96815 13.0979 4.08829 12.9177 4.20843C12.8577 4.2685 12.7675 4.29854 12.7075 4.35861C12.317 4.80914 11.9265 5.28971 11.7463 5.86038C11.5361 6.52117 11.4159 7.24202 11.476 7.96287C11.506 8.26323 11.446 8.53356 11.446 8.83391C11.446 8.92402 11.476 9.01412 11.506 9.13427C11.6863 9.10423 11.8064 9.10423 11.9265 9.04416C12.317 8.83391 12.7375 8.6537 13.0979 8.38338C13.3082 8.2332 13.5184 8.14309 13.7587 8.11305C14.2994 8.05298 14.87 7.93284 15.4407 7.99291ZM11.446 10.1855C11.5361 10.2756 11.5962 10.3958 11.6562 10.4258C12.0467 10.4558 12.3771 10.6661 12.7075 10.8163C13.0679 10.9664 13.3683 11.2067 13.6085 11.5071C14.0891 12.1078 14.5096 12.7686 14.6598 13.5495C14.6898 13.7297 14.7799 13.8198 14.9001 13.94C15.2905 14.2703 15.7711 14.4205 16.2216 14.6308C16.3117 14.6608 16.4319 14.6908 16.522 14.6608C16.9725 14.6007 17.393 14.5407 17.8436 14.4806C18.0238 14.4506 18.204 14.3905 18.4142 14.4205C18.5644 14.4506 18.6845 14.3905 18.7747 14.2403C18.7446 13.7297 18.7446 13.2191 18.7146 12.7085C18.7146 12.4982 18.6545 12.288 18.6245 12.1078C18.5644 11.8074 18.4142 11.5071 18.234 11.2668C17.9337 10.9364 17.6633 10.576 17.2128 10.3958C17.1227 10.3657 17.0626 10.3056 17.0026 10.2456C16.8223 10.0654 16.6121 9.97526 16.3718 9.91518C16.2216 9.85511 16.0414 9.79505 15.8912 9.73498C15.7711 9.70494 15.651 9.64487 15.5308 9.64487C14.6898 9.55476 13.8488 9.46465 13.0078 9.64487C12.9478 9.64487 12.9177 9.64487 12.8576 9.64487C12.7675 9.64487 12.6774 9.61483 12.7075 9.49469C12.7375 9.46465 12.7675 9.46466 12.7976 9.43462C13.6686 9.1643 14.5697 9.10423 15.4707 9.19433C15.9813 9.2544 16.4619 9.49469 16.9425 9.61483C17.0326 9.64486 17.1227 9.73497 17.2128 9.79504C17.4531 9.94522 17.6934 10.1254 17.9637 10.2756C17.9937 10.2756 18.0238 10.2756 18.0838 10.2756C18.0538 10.1855 18.0238 10.0654 17.9637 10.0053C17.8736 9.85512 17.7534 9.6749 17.6333 9.55476C17.1828 9.10423 16.6722 8.77384 16.0715 8.53356C15.9513 8.47348 15.8011 8.47348 15.681 8.44344C15.1103 8.35334 14.5096 8.41341 13.9089 8.41341C13.7587 8.41341 13.6386 8.44345 13.5184 8.53356C13.158 8.7438 12.7976 8.95405 12.4372 9.16429C12.287 9.2544 12.1368 9.34451 12.1068 9.52472C12.0467 9.70494 11.9265 9.82508 11.7764 9.91518C11.6863 9.97526 11.5661 10.0654 11.446 10.1855ZM11.0856 8.7438C11.1156 8.68373 11.1456 8.62365 11.1456 8.56358C11.1456 8.47348 11.1456 8.35333 11.1456 8.26323C11.0855 7.78266 11.0555 7.30209 11.1156 6.82153C11.1757 6.31092 11.2357 5.83036 11.476 5.37982C11.7163 4.95932 12.0167 4.56886 12.317 4.20843C12.4071 4.08829 12.5573 3.96815 12.7075 3.90807C13.2481 3.66779 13.6686 3.27733 14.1492 3.00701C14.2393 2.94694 14.3294 2.85683 14.3294 2.70665C13.2781 2.94694 12.3771 3.45754 11.5361 4.05825C11.476 4.08829 11.446 4.14836 11.3859 4.20843C11.1757 4.47875 10.9954 4.71904 10.7852 4.98936C10.635 5.1996 10.5749 5.40986 10.5449 5.65014C10.5149 6.07064 10.5449 6.52117 10.5449 6.94167C10.5449 7.57241 10.8453 8.14309 11.0856 8.7438Z" fill="#0075B7"/>
</svg>
