<svg width="19" height="18" viewBox="0 0 19 18" fill="none" xmlns="http://www.w3.org/2000/svg">
<path d="M3.87677 4.55566H16.1345C16.3829 4.55567 16.6285 4.60773 16.8556 4.70847C17.0826 4.80921 17.286 4.95641 17.4526 5.14057C17.6193 5.32473 17.7455 5.54176 17.8232 5.77769C17.9008 6.01361 17.9282 6.26319 17.9034 6.51033L17.3701 11.8437C17.3262 12.2823 17.1209 12.6891 16.7941 12.9849C16.4672 13.2807 16.0421 13.4445 15.6012 13.4446H7.11233C6.70119 13.4447 6.30271 13.3024 5.98472 13.0418C5.66674 12.7812 5.44891 12.4184 5.36833 12.0152L3.87677 4.55566Z" stroke="#444444" stroke-width="1.3" stroke-linejoin="round"/>
<path d="M3.87675 4.55556L3.15675 1.67289C3.1086 1.48067 2.9976 1.31005 2.84138 1.18814C2.68516 1.06622 2.49269 1.00001 2.29453 1H1.21008" stroke="#444444" stroke-width="1.3" stroke-linecap="round" stroke-linejoin="round"/>
<path d="M6.5434 17H8.32117" stroke="#444444" stroke-width="1.3" stroke-linecap="round" stroke-linejoin="round"/>
<path d="M13.6545 17H15.4323" stroke="#444444" stroke-width="1.3" stroke-linecap="round" stroke-linejoin="round"/>
</svg>
