<svg width="51" height="45" viewBox="0 0 51 45" fill="none" xmlns="http://www.w3.org/2000/svg">
<path opacity="0.2" d="M0.577942 10.4846C0.577942 5.19635 4.74241 0.93457 9.84654 0.93457C15.2917 0.93457 18.7856 3.57959 20.6654 7.55752C22.5627 11.5726 22.8255 16.9798 21.66 22.4398C20.496 27.893 17.9197 33.3365 14.2173 37.4074C10.6285 41.3533 6.00127 43.9918 0.577942 44.1443V40.452C7.10263 40.2116 11.9366 35.2938 13.9697 30.4411C15.012 27.953 15.3561 25.3976 14.7495 23.4232C14.4433 22.4266 13.8913 21.5698 13.0586 20.9648C12.2263 20.3601 11.1515 20.0346 9.84654 20.0346C4.74252 20.0346 0.577942 15.7696 0.577942 10.4846ZM28.7213 10.4846C28.7213 5.19624 32.8859 0.93457 37.9865 0.93457C43.4317 0.93457 46.9256 3.57959 48.8054 7.55752C50.7028 11.5726 50.9657 16.9798 49.8004 22.4398C48.6366 27.893 46.0606 33.3365 42.3586 37.4074C38.7703 41.3533 34.1438 43.9918 28.7213 44.1442V40.452C35.246 40.2116 40.08 35.2938 42.1126 30.4411C43.1548 27.953 43.4985 25.3975 42.8914 23.423C42.585 22.4265 42.0326 21.5697 41.1996 20.9647C40.367 20.3601 39.2919 20.0346 37.9865 20.0346C32.886 20.0346 28.7213 15.7697 28.7213 10.4846Z" stroke="#0075B7"/>
</svg>
