<svg width="32" height="29" viewBox="0 0 32 29" fill="none" xmlns="http://www.w3.org/2000/svg">
<mask id="path-1-outside-1_227_200" maskUnits="userSpaceOnUse" x="0" y="-0.46875" width="32" height="30" fill="black">
<rect fill="white" y="-0.46875" width="32" height="30"/>
<path fill-rule="evenodd" clip-rule="evenodd" d="M17.3726 1.62009C15.7422 2.19937 15.3069 4.23673 16.5625 5.41126C16.7171 5.55584 16.9878 5.74173 17.1641 5.82437C17.448 5.9574 17.552 5.97461 18.0733 5.97461C18.5975 5.97461 18.6978 5.95785 18.9891 5.82134C19.4351 5.6124 19.7074 5.38536 19.9495 5.02068C20.7183 3.86241 20.2859 2.31536 19.0265 1.71859C18.7145 1.57076 18.5892 1.54402 18.1574 1.53314C17.7902 1.52395 17.5766 1.54755 17.3726 1.62009ZM14.6576 6.74068C14.5519 6.77107 14.3583 6.86956 14.2274 6.95965C13.784 7.26468 13.7596 7.35886 13.2543 10.7117C13.0058 12.3613 12.7924 13.7551 12.7802 13.8091C12.7604 13.8969 12.8111 13.9072 13.2646 13.9072H13.7713L13.7342 13.697C13.6923 13.4605 14.096 8.95155 14.1532 9.01663C14.1732 9.03934 14.3218 10.0418 14.4836 11.2443C14.6453 12.4468 14.8114 13.5316 14.8526 13.6549C14.8943 13.78 15.0219 13.9624 15.1409 14.0674C15.2685 14.1799 16.2115 14.6701 17.4847 15.286C19.4197 16.222 19.6422 16.3165 19.9115 16.3171C20.9379 16.3196 21.4232 15.0992 20.6732 14.402C20.5845 14.3196 19.7047 13.8626 18.718 13.3866L16.9241 12.521L16.6591 10.6213C16.5133 9.57646 16.3998 8.66222 16.4068 8.58968C16.4143 8.51248 16.6985 9.13862 17.0919 10.0989L17.7644 11.7401L18.2921 11.985C18.5824 12.1198 18.8371 12.21 18.8582 12.1856C18.9102 12.1253 19.4196 8.72204 19.4185 8.44128C19.4168 7.9785 19.0454 7.4448 18.5931 7.25526C18.4116 7.17919 15.2135 6.67094 14.9762 6.68042C14.9067 6.68322 14.7633 6.7103 14.6576 6.74068ZM7.59337 14.9772C6.03455 15.1789 4.68068 16.1737 4.00633 17.6127C3.57595 18.5311 3.59041 18.3679 3.56827 22.5473L3.54842 26.2822L2.97638 26.3078C2.33779 26.3366 2.19887 26.3931 2.06276 26.68C1.9411 26.9363 1.99879 27.205 2.21434 27.3865L2.38488 27.53H4.18017H5.9754L6.16601 27.3394C6.37147 27.1339 6.41049 26.9247 6.29192 26.6644C6.17476 26.4072 5.98695 26.3353 5.36036 26.3075L4.78243 26.2817L4.79953 22.5752C4.8164 18.9182 4.81825 18.8643 4.9394 18.5448C5.30587 17.5784 5.85235 16.9375 6.64174 16.5483C7.459 16.1454 7.36375 16.1522 12.3271 16.1467L16.7559 16.1417L15.7023 15.6196C15.1229 15.3324 14.6038 15.0567 14.5487 15.0069C14.4587 14.9255 14.1192 14.917 11.2014 14.9234C9.41557 14.9273 7.79188 14.9516 7.59337 14.9772ZM22.1072 15.2667C22.1059 15.4594 22.0684 15.718 22.024 15.8413C21.9796 15.9646 21.9428 16.0821 21.9424 16.1024C21.9419 16.1227 22.6542 16.15 23.5252 16.163C24.9894 16.185 25.1365 16.1963 25.4733 16.3134C26.5996 16.7046 27.4537 17.6091 27.7399 18.7134C27.8154 19.0049 27.8279 19.5648 27.8279 22.6673V26.2817L27.2792 26.3081C26.6842 26.3367 26.494 26.4121 26.3789 26.6644C26.2604 26.9247 26.2994 27.1339 26.5049 27.3394L26.6955 27.53H28.4907H30.286L30.4565 27.3865C30.6721 27.205 30.7298 26.9363 30.6081 26.68C30.4701 26.3891 30.3352 26.3358 29.6661 26.3076L29.0656 26.2824L29.0488 22.4634L29.0321 18.6443L28.9 18.2519C28.2862 16.4271 26.8347 15.1994 25.0263 14.9752C24.7651 14.9428 24.0019 14.9163 23.3305 14.9163H22.1097L22.1072 15.2667ZM12.9295 17.2278C12.9441 17.2669 13.1608 18.007 13.411 18.8725L13.866 20.446L12.9193 23.147C12.3986 24.6326 11.956 25.9461 11.9357 26.0661C11.8884 26.3461 11.9865 26.706 12.1911 27.0034C12.5045 27.4589 13.2205 27.6615 13.7444 27.443C13.9849 27.3427 14.2908 27.0662 14.4073 26.8437C14.4516 26.7591 14.946 25.3842 15.5059 23.7884C16.2967 21.5346 16.5282 20.8117 16.5431 20.5504C16.5593 20.2638 16.4973 19.9901 16.1242 18.7004L15.6862 17.1868L14.2946 17.1717C13.1895 17.1599 12.9084 17.1714 12.9295 17.2278ZM16.2233 17.1933C16.2233 17.2122 16.5653 17.8927 16.9833 18.7055L17.7432 20.1832L17.6559 22.6933C17.5385 26.0676 17.538 26.4509 17.6512 26.7221C18.1418 27.8983 19.9027 27.7406 20.142 26.499C20.1977 26.2101 20.3734 21.3891 20.3724 20.177L20.3718 19.5234L19.7804 18.3411L19.1891 17.1587H17.7062C16.8906 17.1587 16.2233 17.1743 16.2233 17.1933Z"/>
</mask>
<path fill-rule="evenodd" clip-rule="evenodd" d="M17.3726 1.62009C15.7422 2.19937 15.3069 4.23673 16.5625 5.41126C16.7171 5.55584 16.9878 5.74173 17.1641 5.82437C17.448 5.9574 17.552 5.97461 18.0733 5.97461C18.5975 5.97461 18.6978 5.95785 18.9891 5.82134C19.4351 5.6124 19.7074 5.38536 19.9495 5.02068C20.7183 3.86241 20.2859 2.31536 19.0265 1.71859C18.7145 1.57076 18.5892 1.54402 18.1574 1.53314C17.7902 1.52395 17.5766 1.54755 17.3726 1.62009ZM14.6576 6.74068C14.5519 6.77107 14.3583 6.86956 14.2274 6.95965C13.784 7.26468 13.7596 7.35886 13.2543 10.7117C13.0058 12.3613 12.7924 13.7551 12.7802 13.8091C12.7604 13.8969 12.8111 13.9072 13.2646 13.9072H13.7713L13.7342 13.697C13.6923 13.4605 14.096 8.95155 14.1532 9.01663C14.1732 9.03934 14.3218 10.0418 14.4836 11.2443C14.6453 12.4468 14.8114 13.5316 14.8526 13.6549C14.8943 13.78 15.0219 13.9624 15.1409 14.0674C15.2685 14.1799 16.2115 14.6701 17.4847 15.286C19.4197 16.222 19.6422 16.3165 19.9115 16.3171C20.9379 16.3196 21.4232 15.0992 20.6732 14.402C20.5845 14.3196 19.7047 13.8626 18.718 13.3866L16.9241 12.521L16.6591 10.6213C16.5133 9.57646 16.3998 8.66222 16.4068 8.58968C16.4143 8.51248 16.6985 9.13862 17.0919 10.0989L17.7644 11.7401L18.2921 11.985C18.5824 12.1198 18.8371 12.21 18.8582 12.1856C18.9102 12.1253 19.4196 8.72204 19.4185 8.44128C19.4168 7.9785 19.0454 7.4448 18.5931 7.25526C18.4116 7.17919 15.2135 6.67094 14.9762 6.68042C14.9067 6.68322 14.7633 6.7103 14.6576 6.74068ZM7.59337 14.9772C6.03455 15.1789 4.68068 16.1737 4.00633 17.6127C3.57595 18.5311 3.59041 18.3679 3.56827 22.5473L3.54842 26.2822L2.97638 26.3078C2.33779 26.3366 2.19887 26.3931 2.06276 26.68C1.9411 26.9363 1.99879 27.205 2.21434 27.3865L2.38488 27.53H4.18017H5.9754L6.16601 27.3394C6.37147 27.1339 6.41049 26.9247 6.29192 26.6644C6.17476 26.4072 5.98695 26.3353 5.36036 26.3075L4.78243 26.2817L4.79953 22.5752C4.8164 18.9182 4.81825 18.8643 4.9394 18.5448C5.30587 17.5784 5.85235 16.9375 6.64174 16.5483C7.459 16.1454 7.36375 16.1522 12.3271 16.1467L16.7559 16.1417L15.7023 15.6196C15.1229 15.3324 14.6038 15.0567 14.5487 15.0069C14.4587 14.9255 14.1192 14.917 11.2014 14.9234C9.41557 14.9273 7.79188 14.9516 7.59337 14.9772ZM22.1072 15.2667C22.1059 15.4594 22.0684 15.718 22.024 15.8413C21.9796 15.9646 21.9428 16.0821 21.9424 16.1024C21.9419 16.1227 22.6542 16.15 23.5252 16.163C24.9894 16.185 25.1365 16.1963 25.4733 16.3134C26.5996 16.7046 27.4537 17.6091 27.7399 18.7134C27.8154 19.0049 27.8279 19.5648 27.8279 22.6673V26.2817L27.2792 26.3081C26.6842 26.3367 26.494 26.4121 26.3789 26.6644C26.2604 26.9247 26.2994 27.1339 26.5049 27.3394L26.6955 27.53H28.4907H30.286L30.4565 27.3865C30.6721 27.205 30.7298 26.9363 30.6081 26.68C30.4701 26.3891 30.3352 26.3358 29.6661 26.3076L29.0656 26.2824L29.0488 22.4634L29.0321 18.6443L28.9 18.2519C28.2862 16.4271 26.8347 15.1994 25.0263 14.9752C24.7651 14.9428 24.0019 14.9163 23.3305 14.9163H22.1097L22.1072 15.2667ZM12.9295 17.2278C12.9441 17.2669 13.1608 18.007 13.411 18.8725L13.866 20.446L12.9193 23.147C12.3986 24.6326 11.956 25.9461 11.9357 26.0661C11.8884 26.3461 11.9865 26.706 12.1911 27.0034C12.5045 27.4589 13.2205 27.6615 13.7444 27.443C13.9849 27.3427 14.2908 27.0662 14.4073 26.8437C14.4516 26.7591 14.946 25.3842 15.5059 23.7884C16.2967 21.5346 16.5282 20.8117 16.5431 20.5504C16.5593 20.2638 16.4973 19.9901 16.1242 18.7004L15.6862 17.1868L14.2946 17.1717C13.1895 17.1599 12.9084 17.1714 12.9295 17.2278ZM16.2233 17.1933C16.2233 17.2122 16.5653 17.8927 16.9833 18.7055L17.7432 20.1832L17.6559 22.6933C17.5385 26.0676 17.538 26.4509 17.6512 26.7221C18.1418 27.8983 19.9027 27.7406 20.142 26.499C20.1977 26.2101 20.3734 21.3891 20.3724 20.177L20.3718 19.5234L19.7804 18.3411L19.1891 17.1587H17.7062C16.8906 17.1587 16.2233 17.1743 16.2233 17.1933Z" stroke="white" stroke-width="2.4" mask="url(#path-1-outside-1_227_200)"/>
</svg>
