<svg width="30" height="26" viewBox="0 0 30 26" fill="none" xmlns="http://www.w3.org/2000/svg">
<path d="M11.8528 13.8554L12.0914 14.0803L12.5029 13.6436M11.8528 13.8554L15.7433 15.3548C15.1296 15.119 14.5515 14.8941 14.1148 14.7219C13.8963 14.6357 13.7144 14.5631 13.5815 14.5092C13.48 14.468 13.4228 14.4439 13.398 14.4334C13.3886 14.4264 13.3715 14.4135 13.3452 14.3926C13.2896 14.3483 13.2153 14.2861 13.1265 14.2091C12.9494 14.0559 12.7268 13.8546 12.5029 13.6437C12.5029 13.6436 12.5029 13.6436 12.5029 13.6436M11.8528 13.8554C11.8565 13.7956 11.8581 13.7353 11.8581 13.6742V13.2949H11.2581L10.9007 13.6742L10.8466 13.7316L11.2151 14.0789L11.8528 13.8554ZM12.5029 13.6436L11.6696 12.8583L10.6581 11.9049V13.2949V13.6742C10.6581 13.8756 10.6321 13.9692 10.5818 14.0618C10.5168 14.1815 10.3877 14.3404 10.0906 14.626L12.5029 13.6436ZM3.32726 17.3314L5.74642 17.3307L8.81088 17.3298L8.26909 17.072L8.43186 16.7299M3.32726 17.3314L10.0906 14.626C9.56329 15.1328 9.24772 15.4393 9.03391 15.6952C8.79708 15.9787 8.68278 16.2026 8.53621 16.5106C8.53621 16.5106 8.53621 16.5106 8.53621 16.5106L8.43186 16.7299M3.32726 17.3314L3.34701 17.2815L3.34702 17.2815C3.42052 17.0957 3.4932 16.9123 3.56503 16.7313M3.32726 17.3314L3.56503 16.7313M8.43186 16.7299L5.74625 16.7307L3.56503 16.7313M8.43186 16.7299L3.56503 16.7313M3.56503 16.7313C4.37144 14.6991 5.06984 12.9705 5.59957 11.6918C5.8882 10.9951 6.12567 10.4346 6.30274 10.0322C6.39146 9.8306 6.46344 9.67228 6.51821 9.55785C6.55738 9.476 6.58031 9.43271 6.58974 9.41491C6.59565 9.40375 6.59626 9.4026 6.59226 9.40822L6.10348 9.06023L3.56503 16.7313ZM3.56503 16.7313L2.91949 16.7315L3.56503 16.7313ZM8.38897 4.12786L8.38896 4.12788C8.34477 4.3105 8.32041 4.59867 8.32864 4.91081C8.33692 5.22481 8.37653 5.49971 8.427 5.66006L8.427 5.66008C8.733 6.63241 9.5828 7.42772 10.5233 7.64943L10.5234 7.64943C11.5276 7.88619 12.5308 7.60188 13.2718 6.86537C13.8983 6.24256 14.1485 5.58921 14.0989 4.63056C14.0672 4.01694 13.9582 3.68833 13.6342 3.20404L13.6342 3.204C13.2635 2.64976 12.7936 2.28849 12.0775 2.03633L12.0775 2.03632C11.9743 1.99997 11.7137 1.95545 11.3925 1.93469C11.0709 1.9139 10.8087 1.92471 10.7045 1.94711L8.38897 4.12786ZM8.38897 4.12786C8.4642 3.81694 8.64119 3.4525 8.88619 3.11399C9.1318 2.77465 9.41625 2.50208 9.67346 2.34753L8.38897 4.12786ZM23.9024 21.0545L23.9025 21.0545C25.2921 20.7453 26.2615 19.5539 26.2778 18.1515C26.2815 17.8299 26.2644 17.6192 26.2218 17.427C26.179 17.2341 26.1044 17.0318 25.9627 16.7335C25.6278 16.0284 24.865 15.3809 24.0669 15.1446C23.9029 15.0961 23.6434 15.0591 23.355 15.0498C23.0672 15.0404 22.8017 15.0601 22.6274 15.0987L23.9024 21.0545ZM23.9024 21.0545C23.4493 21.1553 22.7355 21.1241 22.3101 20.9879C21.4478 20.7119 20.7089 19.9991 20.3646 19.0749C20.2984 18.8973 20.2444 18.6011 20.2274 18.261C20.2105 17.9238 20.2329 17.6027 20.2843 17.3828C20.5451 16.2691 21.4771 15.3529 22.6273 15.0987L23.9024 21.0545ZM0.652495 19.1524L0.652469 19.1525C0.652416 19.1526 0.652301 19.1527 0.652128 19.1529C0.649251 19.1565 0.63048 19.1798 0.618224 19.4222C0.604572 19.6922 0.601707 20.1518 0.601132 21.0181L0.599976 22.7603L0.690952 22.9345C0.752718 23.0527 0.844849 23.1539 0.908259 23.1985C0.90827 23.1985 0.908281 23.1985 0.908293 23.1985L0.998308 23.2617L9.39852 23.2762L17.9879 23.291L18.2336 23.2914L18.4084 23.464L19.3808 24.4241L18.9592 24.851L19.3808 24.4241C19.7926 24.8307 20.0298 25.0572 20.19 25.1919C20.335 25.3139 20.3801 25.3289 20.402 25.3362L20.4037 25.3368L0.652495 19.1524ZM0.652495 19.1524C0.682866 19.087 0.74421 19.0005 0.829384 18.92C0.900173 18.8531 0.964993 18.8113 1.00884 18.7902C1.01325 18.7897 1.01829 18.7892 1.02402 18.7886C1.07384 18.7836 1.15292 18.7783 1.27395 18.7732C1.51485 18.7631 1.89096 18.7553 2.46866 18.7494C3.622 18.7376 5.55282 18.7337 8.75402 18.7328C11.3839 18.732 13.3248 18.7363 14.6271 18.7459C15.2787 18.7507 15.768 18.7568 16.103 18.7643C16.2709 18.768 16.3965 18.772 16.4828 18.7761C16.4928 18.7766 16.5021 18.777 16.5106 18.7775C16.5124 18.7789 16.5144 18.7803 16.5164 18.7819C16.5816 18.8316 16.6864 18.9219 16.8605 19.0861C17.2063 19.412 17.7696 19.9752 18.7351 20.9515L20.9877 23.2293L21.1628 23.4063L21.4118 23.4074L24.6624 23.4211L27.7801 23.4343L27.9734 23.5254C27.9734 23.5255 27.9734 23.5255 27.9734 23.5255C28.3467 23.7015 28.5394 23.9739 28.584 24.3502C28.6286 24.7273 28.3516 25.184 27.986 25.3208L27.986 25.3208M0.652495 19.1524L27.986 25.3208M27.986 25.3208C27.9811 25.3226 27.9765 25.3244 27.9719 25.3263C27.9182 25.3476 27.8589 25.3711 27.4063 25.3843C26.9021 25.3991 25.9882 25.4 24.1883 25.4C22.5413 25.4 21.6183 25.3974 21.0755 25.3845M27.986 25.3208L21.0755 25.3845M21.0755 25.3845C20.5099 25.371 20.429 25.3453 20.4038 25.3368L21.0755 25.3845ZM7.83515 0.644257L7.83522 0.644228C7.9029 0.619359 8.03869 0.595976 8.21606 0.60058C8.38921 0.605073 8.54877 0.634936 8.65604 0.675C8.29697 0.906325 7.94727 1.20786 7.64842 1.52319C7.43959 1.74354 7.24012 1.98693 7.07353 2.23719C7.01941 2.09511 6.98714 1.95155 6.98714 1.84194C6.98714 1.33937 7.34563 0.824067 7.83515 0.644257ZM10.5782 1.36056L10.7045 1.94712L10.5782 1.36056ZM7.82159 9.17767C8.22535 9.19101 8.71944 9.25558 9.16925 9.34748C9.63617 9.44288 9.98557 9.55379 10.1361 9.63398L10.1362 9.63402C10.1334 9.63256 10.1344 9.63323 10.1396 9.63694C10.1534 9.64673 10.197 9.67768 10.2812 9.7463C10.3839 9.82995 10.5204 9.94754 10.6919 10.1007C11.0341 10.4063 11.5006 10.8401 12.0859 11.3977L12.0859 11.3977C12.5792 11.8676 13.0475 12.3055 13.4052 12.6331C13.5837 12.7966 13.7367 12.9344 13.8523 13.0357C13.9098 13.0859 13.9612 13.1299 14.0033 13.1644C14.0045 13.1654 14.0058 13.1665 14.0073 13.1677C14.0321 13.1881 14.1022 13.2458 14.1747 13.2838L14.1749 13.284C14.231 13.3133 14.345 13.36 14.451 13.4031C14.5755 13.4535 14.7426 13.52 14.9399 13.5975C15.3349 13.7528 15.8554 13.9544 16.4066 14.1649C16.9522 14.3734 17.4724 14.58 17.87 14.7447C18.0692 14.8271 18.2347 14.8978 18.3561 14.9522C18.4302 14.9854 18.4737 15.0065 18.4957 15.0171C18.5127 15.0254 18.5167 15.0272 18.5116 15.0235C18.9923 15.3663 18.7291 16.1959 18.1201 16.1822L18.1066 16.7821L7.82159 9.17767ZM0.599878 25.4V25.1659C0.817035 25.1977 1.10334 25.2158 1.50088 25.2289C2.51059 25.2622 4.4307 25.2656 8.23739 25.2724C8.5665 25.273 8.90972 25.2736 9.26766 25.2742L17.4613 25.2894L17.5716 25.4H9.50858H0.599878ZM16.5874 18.783C16.5874 18.7831 16.5854 18.7829 16.5816 18.7824C16.5855 18.7827 16.5873 18.783 16.5874 18.783Z" stroke="white" stroke-width="1.2"/>
</svg>
