<svg width="28" height="30" viewBox="0 0 28 30" fill="none" xmlns="http://www.w3.org/2000/svg">
<mask id="path-1-outside-1_258_24" maskUnits="userSpaceOnUse" x="-0.00012207" y="0" width="28" height="30" fill="black">
<rect fill="white" x="-0.00012207" width="28" height="30"/>
<path fill-rule="evenodd" clip-rule="evenodd" d="M13.5474 2.02913C12.6553 2.15492 11.6153 2.57868 10.9412 3.09114C9.97941 3.82224 9.27194 4.86616 8.92314 6.0689L8.79028 6.52698L8.77204 9.3172L8.75384 12.1074L9.0997 12.0763C9.28993 12.0591 10.0333 11.9826 10.7517 11.9062L12.0579 11.7674L12.3018 11.9011C12.579 12.053 12.6539 12.2252 12.4602 12.2655C12.3955 12.279 11.542 12.3718 10.5637 12.4719C8.56397 12.6763 8.23331 12.7342 7.78108 12.9584C6.89893 13.3958 6.35501 14.0731 6.11101 15.0381C6.01638 15.4122 6.01139 15.5851 6.02542 17.9949C6.04026 20.5368 6.04118 20.5563 6.15817 20.8461C6.302 21.2022 6.604 21.613 6.88612 21.8363L7.09653 22.0028L5.85694 22.0036C4.47759 22.0044 4.19912 22.044 3.62893 22.32C3.17101 22.5417 2.53205 23.1779 2.31412 23.6292C2.09217 24.0887 1.99988 24.4917 1.99988 25.0014C1.99988 25.8383 2.2698 26.4899 2.8648 27.0894C3.14387 27.3705 3.35006 27.5254 3.62736 27.6618C4.28939 27.9876 4.40623 27.9981 7.37449 27.9991L10.03 28V27.1417V26.2835L9.50873 26.2642C8.8994 26.2416 8.69905 26.1552 8.51888 25.8371C8.42019 25.6629 8.40524 25.562 8.40448 25.0649L8.40367 24.4932H6.67683H4.94999L4.86674 24.3661C4.78964 24.2484 4.78964 24.2297 4.86674 24.112L4.94999 23.9849H6.67683H8.40367V23.1784V22.3719L8.59426 22.3404C8.99907 22.2734 8.96273 22.114 8.96273 23.9577C8.96273 25.8778 8.90387 25.7129 9.58949 25.7129H10.0196L10.0375 25.2936C10.0522 24.9503 10.0775 24.8433 10.1775 24.7032C10.3597 24.4477 10.6369 24.3431 11.1354 24.3418C11.7119 24.3403 11.7441 24.3038 11.9109 23.4632C12.0539 22.742 12.5974 22.0396 13.2573 21.7233C14.3005 21.223 15.4538 21.4421 16.2262 22.2873C16.597 22.693 16.7874 23.1388 16.9158 23.9017C16.9339 24.0096 17.0034 24.1525 17.0702 24.2193C17.1788 24.328 17.2362 24.3407 17.6179 24.3407C18.3865 24.3407 18.7209 24.6513 18.7209 25.3651V25.7129H19.0292C19.5741 25.7129 19.5341 25.852 19.5341 23.9577C19.5341 22.114 19.4977 22.2734 19.9025 22.3404L20.0931 22.3719V23.1784V23.9849H21.938C23.3052 23.9849 23.7987 24.0007 23.8439 24.0459C23.9225 24.1245 23.9225 24.3535 23.8439 24.4322C23.7987 24.4774 23.3052 24.4932 21.938 24.4932H20.0931V25.0543C20.0931 25.5121 20.0747 25.6514 19.9931 25.8115C19.8419 26.1078 19.5965 26.2344 19.1199 26.262L18.7209 26.2851V27.1425V28L21.2494 27.9991C23.2758 27.9984 23.8485 27.9834 24.1336 27.9236C25.2263 27.6941 26.1335 26.8213 26.4171 25.7266C26.5184 25.3358 26.5195 24.654 26.4196 24.2624C26.2788 23.7111 26.0558 23.3315 25.612 22.8878C25.3093 22.5852 25.1097 22.4342 24.8551 22.3149C24.269 22.0402 24.0142 22.0044 22.6399 22.0036L21.4003 22.0028L21.6107 21.8363C21.8928 21.613 22.1948 21.2022 22.3386 20.8461C22.4555 20.5566 22.4565 20.5351 22.4713 18.0332C22.4879 15.2227 22.4745 15.0662 22.1596 14.4064C21.8483 13.754 21.3863 13.2912 20.7129 12.9571C20.2589 12.7318 19.9504 12.6778 17.9585 12.4746C16.9662 12.3734 16.1013 12.2795 16.0366 12.2658C15.8433 12.2251 15.9177 12.0531 16.194 11.9016L16.4371 11.7683L17.9983 11.9311C18.8569 12.0207 19.6007 12.0935 19.6512 12.093C19.7387 12.0922 19.742 11.9647 19.7239 9.30958C19.7056 6.64641 19.7002 6.51056 19.5956 6.14392C18.9941 4.03402 17.4238 2.53945 15.3482 2.10114C14.898 2.0061 13.9731 1.9691 13.5474 2.02913ZM14.6727 5.35066C15.2404 5.93249 15.8249 6.25004 16.8899 6.55508C17.3267 6.68016 17.5766 6.89489 17.6325 7.19312C17.693 7.51529 17.6186 9.04234 17.5263 9.3731C17.2771 10.2667 16.6116 11.0871 15.8222 11.4741C15.2487 11.7553 14.8388 11.8543 14.2484 11.8543C13.6759 11.8543 13.2504 11.7557 12.7347 11.5035C11.7692 11.0315 11.0645 10.0857 10.8973 9.03716C10.8688 8.85856 10.8431 8.37665 10.8403 7.96625C10.8328 6.89662 10.9362 6.73317 11.7639 6.50507C12.679 6.25293 13.2404 5.94006 13.791 5.37541C14.0286 5.13171 14.231 4.93091 14.2407 4.92918C14.2505 4.92745 14.4449 5.11713 14.6727 5.35066ZM14.2484 12.395C14.5139 12.395 14.8742 12.365 15.0489 12.3285L15.3665 12.2619V12.6107C15.3665 13.0021 15.2776 13.2647 15.0716 13.4818C14.5099 14.0736 13.5218 13.8967 13.2092 13.1484C13.1639 13.0399 13.1303 12.811 13.1303 12.6107V12.2619L13.4479 12.3285C13.6227 12.365 13.9828 12.395 14.2484 12.395ZM13.9943 16.9763C13.9943 17.8227 13.9783 18.0824 13.9183 18.2088C13.8628 18.3257 13.5374 18.5817 12.7139 19.1567C8.7698 21.9101 8.91414 21.8252 8.24413 21.7878C7.57849 21.7507 7.01252 21.3746 6.73197 20.783C6.60939 20.5245 6.59821 20.4427 6.58311 19.6962C6.56919 19.0066 6.57757 18.893 6.64069 18.9172C7.18151 19.1248 8.13003 19.293 8.41124 19.2312L8.55614 19.1994V17.8171C8.55614 16.6483 8.56834 16.4174 8.63527 16.3219C8.72894 16.1881 8.89285 16.1759 9.02224 16.293C9.10798 16.3706 9.1152 16.4849 9.1152 17.7621V19.147L9.39341 19.0744C9.54644 19.0344 9.77515 18.9573 9.90165 18.9031C10.3065 18.7296 12.6333 17.4157 12.809 17.2614C12.9026 17.1792 13.0602 16.9389 13.1613 16.7243C13.3601 16.302 13.4801 16.1448 13.7147 15.999C13.9975 15.8234 13.9943 15.812 13.9943 16.9763ZM14.7531 15.9784C14.9585 16.0846 15.1292 16.3055 15.3333 16.7291C15.4312 16.9322 15.5759 17.1597 15.6549 17.2346C15.8085 17.3804 18.087 18.6733 18.5552 18.8804C18.7096 18.9486 18.9587 19.0366 19.1088 19.0758L19.3816 19.147V17.7709C19.3816 16.5617 19.3918 16.3835 19.4657 16.3019C19.5801 16.1755 19.7656 16.1849 19.8615 16.3219C19.9284 16.4174 19.9407 16.6481 19.9407 17.8152V19.1957L20.0681 19.22C20.3861 19.2808 21.3196 19.1231 21.8525 18.9187C21.9103 18.8965 21.9228 19.0228 21.9228 19.6321C21.9228 20.2661 21.907 20.4148 21.8132 20.6655C21.6739 21.0377 21.2932 21.4468 20.9118 21.6341C20.6648 21.7554 20.5657 21.7741 20.1694 21.7741C19.7803 21.7741 19.6702 21.7541 19.4324 21.6405C19.2787 21.5671 18.1466 20.8052 16.9166 19.9475C15.3166 18.8317 14.6551 18.3422 14.5915 18.2268C14.5146 18.0874 14.5025 17.9188 14.5025 16.9848C14.5025 16.264 14.5203 15.904 14.5559 15.904C14.5852 15.904 14.6739 15.9374 14.7531 15.9784ZM13.8164 22.0739C13.4949 22.1756 13.2857 22.3008 13.0154 22.5538C12.6995 22.8492 12.4984 23.2437 12.4003 23.7604C12.3057 24.2585 12.2825 24.3239 12.1249 24.5368C11.9331 24.796 11.6588 24.8973 11.1456 24.8986C10.8768 24.8993 10.6878 24.923 10.6501 24.9607C10.6056 25.0053 10.5891 25.4027 10.5891 26.431C10.5891 27.6651 10.5994 27.8505 10.6718 27.923C10.7451 27.9963 10.9179 28.004 12.1838 27.9901C13.53 27.9755 13.6271 27.9681 13.8545 27.8631L14.0959 27.7516V24.8772C14.0959 23.2963 14.0787 22.0043 14.0578 22.0062C14.0369 22.0081 13.9282 22.0385 13.8164 22.0739ZM14.655 24.8761V27.7438L14.871 27.8592C15.0787 27.9701 15.1426 27.9752 16.5282 27.9902C17.8311 28.0044 17.9787 27.9975 18.0656 27.9188C18.1555 27.8375 18.1618 27.741 18.1618 26.4456C18.1618 25.2533 18.1506 25.0483 18.082 24.9796C18.023 24.9207 17.8984 24.8998 17.6067 24.8998C16.7803 24.8998 16.4834 24.6294 16.3302 23.7374C16.1871 22.9038 15.6826 22.3127 14.9218 22.0873L14.655 22.0083V24.8761Z"/>
</mask>
<path fill-rule="evenodd" clip-rule="evenodd" d="M13.5474 2.02913C12.6553 2.15492 11.6153 2.57868 10.9412 3.09114C9.97941 3.82224 9.27194 4.86616 8.92314 6.0689L8.79028 6.52698L8.77204 9.3172L8.75384 12.1074L9.0997 12.0763C9.28993 12.0591 10.0333 11.9826 10.7517 11.9062L12.0579 11.7674L12.3018 11.9011C12.579 12.053 12.6539 12.2252 12.4602 12.2655C12.3955 12.279 11.542 12.3718 10.5637 12.4719C8.56397 12.6763 8.23331 12.7342 7.78108 12.9584C6.89893 13.3958 6.35501 14.0731 6.11101 15.0381C6.01638 15.4122 6.01139 15.5851 6.02542 17.9949C6.04026 20.5368 6.04118 20.5563 6.15817 20.8461C6.302 21.2022 6.604 21.613 6.88612 21.8363L7.09653 22.0028L5.85694 22.0036C4.47759 22.0044 4.19912 22.044 3.62893 22.32C3.17101 22.5417 2.53205 23.1779 2.31412 23.6292C2.09217 24.0887 1.99988 24.4917 1.99988 25.0014C1.99988 25.8383 2.2698 26.4899 2.8648 27.0894C3.14387 27.3705 3.35006 27.5254 3.62736 27.6618C4.28939 27.9876 4.40623 27.9981 7.37449 27.9991L10.03 28V27.1417V26.2835L9.50873 26.2642C8.8994 26.2416 8.69905 26.1552 8.51888 25.8371C8.42019 25.6629 8.40524 25.562 8.40448 25.0649L8.40367 24.4932H6.67683H4.94999L4.86674 24.3661C4.78964 24.2484 4.78964 24.2297 4.86674 24.112L4.94999 23.9849H6.67683H8.40367V23.1784V22.3719L8.59426 22.3404C8.99907 22.2734 8.96273 22.114 8.96273 23.9577C8.96273 25.8778 8.90387 25.7129 9.58949 25.7129H10.0196L10.0375 25.2936C10.0522 24.9503 10.0775 24.8433 10.1775 24.7032C10.3597 24.4477 10.6369 24.3431 11.1354 24.3418C11.7119 24.3403 11.7441 24.3038 11.9109 23.4632C12.0539 22.742 12.5974 22.0396 13.2573 21.7233C14.3005 21.223 15.4538 21.4421 16.2262 22.2873C16.597 22.693 16.7874 23.1388 16.9158 23.9017C16.9339 24.0096 17.0034 24.1525 17.0702 24.2193C17.1788 24.328 17.2362 24.3407 17.6179 24.3407C18.3865 24.3407 18.7209 24.6513 18.7209 25.3651V25.7129H19.0292C19.5741 25.7129 19.5341 25.852 19.5341 23.9577C19.5341 22.114 19.4977 22.2734 19.9025 22.3404L20.0931 22.3719V23.1784V23.9849H21.938C23.3052 23.9849 23.7987 24.0007 23.8439 24.0459C23.9225 24.1245 23.9225 24.3535 23.8439 24.4322C23.7987 24.4774 23.3052 24.4932 21.938 24.4932H20.0931V25.0543C20.0931 25.5121 20.0747 25.6514 19.9931 25.8115C19.8419 26.1078 19.5965 26.2344 19.1199 26.262L18.7209 26.2851V27.1425V28L21.2494 27.9991C23.2758 27.9984 23.8485 27.9834 24.1336 27.9236C25.2263 27.6941 26.1335 26.8213 26.4171 25.7266C26.5184 25.3358 26.5195 24.654 26.4196 24.2624C26.2788 23.7111 26.0558 23.3315 25.612 22.8878C25.3093 22.5852 25.1097 22.4342 24.8551 22.3149C24.269 22.0402 24.0142 22.0044 22.6399 22.0036L21.4003 22.0028L21.6107 21.8363C21.8928 21.613 22.1948 21.2022 22.3386 20.8461C22.4555 20.5566 22.4565 20.5351 22.4713 18.0332C22.4879 15.2227 22.4745 15.0662 22.1596 14.4064C21.8483 13.754 21.3863 13.2912 20.7129 12.9571C20.2589 12.7318 19.9504 12.6778 17.9585 12.4746C16.9662 12.3734 16.1013 12.2795 16.0366 12.2658C15.8433 12.2251 15.9177 12.0531 16.194 11.9016L16.4371 11.7683L17.9983 11.9311C18.8569 12.0207 19.6007 12.0935 19.6512 12.093C19.7387 12.0922 19.742 11.9647 19.7239 9.30958C19.7056 6.64641 19.7002 6.51056 19.5956 6.14392C18.9941 4.03402 17.4238 2.53945 15.3482 2.10114C14.898 2.0061 13.9731 1.9691 13.5474 2.02913ZM14.6727 5.35066C15.2404 5.93249 15.8249 6.25004 16.8899 6.55508C17.3267 6.68016 17.5766 6.89489 17.6325 7.19312C17.693 7.51529 17.6186 9.04234 17.5263 9.3731C17.2771 10.2667 16.6116 11.0871 15.8222 11.4741C15.2487 11.7553 14.8388 11.8543 14.2484 11.8543C13.6759 11.8543 13.2504 11.7557 12.7347 11.5035C11.7692 11.0315 11.0645 10.0857 10.8973 9.03716C10.8688 8.85856 10.8431 8.37665 10.8403 7.96625C10.8328 6.89662 10.9362 6.73317 11.7639 6.50507C12.679 6.25293 13.2404 5.94006 13.791 5.37541C14.0286 5.13171 14.231 4.93091 14.2407 4.92918C14.2505 4.92745 14.4449 5.11713 14.6727 5.35066ZM14.2484 12.395C14.5139 12.395 14.8742 12.365 15.0489 12.3285L15.3665 12.2619V12.6107C15.3665 13.0021 15.2776 13.2647 15.0716 13.4818C14.5099 14.0736 13.5218 13.8967 13.2092 13.1484C13.1639 13.0399 13.1303 12.811 13.1303 12.6107V12.2619L13.4479 12.3285C13.6227 12.365 13.9828 12.395 14.2484 12.395ZM13.9943 16.9763C13.9943 17.8227 13.9783 18.0824 13.9183 18.2088C13.8628 18.3257 13.5374 18.5817 12.7139 19.1567C8.7698 21.9101 8.91414 21.8252 8.24413 21.7878C7.57849 21.7507 7.01252 21.3746 6.73197 20.783C6.60939 20.5245 6.59821 20.4427 6.58311 19.6962C6.56919 19.0066 6.57757 18.893 6.64069 18.9172C7.18151 19.1248 8.13003 19.293 8.41124 19.2312L8.55614 19.1994V17.8171C8.55614 16.6483 8.56834 16.4174 8.63527 16.3219C8.72894 16.1881 8.89285 16.1759 9.02224 16.293C9.10798 16.3706 9.1152 16.4849 9.1152 17.7621V19.147L9.39341 19.0744C9.54644 19.0344 9.77515 18.9573 9.90165 18.9031C10.3065 18.7296 12.6333 17.4157 12.809 17.2614C12.9026 17.1792 13.0602 16.9389 13.1613 16.7243C13.3601 16.302 13.4801 16.1448 13.7147 15.999C13.9975 15.8234 13.9943 15.812 13.9943 16.9763ZM14.7531 15.9784C14.9585 16.0846 15.1292 16.3055 15.3333 16.7291C15.4312 16.9322 15.5759 17.1597 15.6549 17.2346C15.8085 17.3804 18.087 18.6733 18.5552 18.8804C18.7096 18.9486 18.9587 19.0366 19.1088 19.0758L19.3816 19.147V17.7709C19.3816 16.5617 19.3918 16.3835 19.4657 16.3019C19.5801 16.1755 19.7656 16.1849 19.8615 16.3219C19.9284 16.4174 19.9407 16.6481 19.9407 17.8152V19.1957L20.0681 19.22C20.3861 19.2808 21.3196 19.1231 21.8525 18.9187C21.9103 18.8965 21.9228 19.0228 21.9228 19.6321C21.9228 20.2661 21.907 20.4148 21.8132 20.6655C21.6739 21.0377 21.2932 21.4468 20.9118 21.6341C20.6648 21.7554 20.5657 21.7741 20.1694 21.7741C19.7803 21.7741 19.6702 21.7541 19.4324 21.6405C19.2787 21.5671 18.1466 20.8052 16.9166 19.9475C15.3166 18.8317 14.6551 18.3422 14.5915 18.2268C14.5146 18.0874 14.5025 17.9188 14.5025 16.9848C14.5025 16.264 14.5203 15.904 14.5559 15.904C14.5852 15.904 14.6739 15.9374 14.7531 15.9784ZM13.8164 22.0739C13.4949 22.1756 13.2857 22.3008 13.0154 22.5538C12.6995 22.8492 12.4984 23.2437 12.4003 23.7604C12.3057 24.2585 12.2825 24.3239 12.1249 24.5368C11.9331 24.796 11.6588 24.8973 11.1456 24.8986C10.8768 24.8993 10.6878 24.923 10.6501 24.9607C10.6056 25.0053 10.5891 25.4027 10.5891 26.431C10.5891 27.6651 10.5994 27.8505 10.6718 27.923C10.7451 27.9963 10.9179 28.004 12.1838 27.9901C13.53 27.9755 13.6271 27.9681 13.8545 27.8631L14.0959 27.7516V24.8772C14.0959 23.2963 14.0787 22.0043 14.0578 22.0062C14.0369 22.0081 13.9282 22.0385 13.8164 22.0739ZM14.655 24.8761V27.7438L14.871 27.8592C15.0787 27.9701 15.1426 27.9752 16.5282 27.9902C17.8311 28.0044 17.9787 27.9975 18.0656 27.9188C18.1555 27.8375 18.1618 27.741 18.1618 26.4456C18.1618 25.2533 18.1506 25.0483 18.082 24.9796C18.023 24.9207 17.8984 24.8998 17.6067 24.8998C16.7803 24.8998 16.4834 24.6294 16.3302 23.7374C16.1871 22.9038 15.6826 22.3127 14.9218 22.0873L14.655 22.0083V24.8761Z" stroke="white" stroke-width="2.4" mask="url(#path-1-outside-1_258_24)"/>
</svg>
