<svg width="30" height="30" viewBox="0 0 30 30" fill="none" xmlns="http://www.w3.org/2000/svg">
<mask id="path-1-outside-1_258_22" maskUnits="userSpaceOnUse" x="-0.00012207" y="0" width="30" height="30" fill="black">
<rect fill="white" x="-0.00012207" width="30" height="30"/>
<path fill-rule="evenodd" clip-rule="evenodd" d="M16.0319 2.05925C15.3082 2.29471 14.7162 2.95491 14.5551 3.70623C14.3545 4.64177 14.875 5.68509 15.7531 6.10743C16.4092 6.42299 17.3144 6.35303 17.9141 5.94047C18.41 5.59927 18.7341 5.08086 18.8407 4.45806C18.9932 3.56798 18.4861 2.60944 17.6409 2.19001C17.3252 2.0333 17.241 2.0151 16.7712 2.0022C16.4347 1.99294 16.1737 2.01312 16.0319 2.05925ZM14.3144 7.11199C13.3714 7.36592 12.6297 8.17643 12.4661 9.13169C12.4199 9.40127 12.4339 9.81112 12.5394 11.2806C12.6591 12.9475 12.6797 13.1139 12.79 13.3102C12.8561 13.4279 12.9743 13.5715 13.0527 13.6295C13.1311 13.6874 14.1285 14.1261 15.2693 14.6044C17.5637 15.5665 17.6912 15.6009 18.1235 15.3751C18.779 15.0328 18.8588 14.0032 18.2602 13.6108C18.1564 13.5427 17.3342 13.1795 16.4331 12.8036C15.532 12.4277 14.7745 12.1007 14.7497 12.077C14.7057 12.0348 14.5615 10.3807 14.5662 9.97049C14.5678 9.82324 14.6417 10.0357 14.8191 10.6977C14.9569 11.2121 15.1015 11.6525 15.1403 11.6764C15.1791 11.7003 15.8619 11.9941 16.6576 12.3293L18.1045 12.9387L18.4521 12.7674C18.7155 12.6375 18.8972 12.588 19.2028 12.5629C19.5247 12.5365 19.6057 12.5131 19.6051 12.4464C19.6046 12.4006 19.5578 12.1075 19.501 11.7952C19.4443 11.483 19.4047 11.2206 19.413 11.2123C19.4213 11.204 19.5325 11.5004 19.66 11.871L19.8919 12.5448L21.2167 12.5449L22.5415 12.5451L22.2203 12.22L21.899 11.8949L21.3566 10.3537C21.0583 9.50607 20.7258 8.64428 20.6177 8.43857C20.2675 7.77213 19.7962 7.34012 19.2001 7.1393C18.8972 7.03725 18.7715 7.03195 16.7338 7.03522C15.0583 7.03788 14.5268 7.05473 14.3144 7.11199ZM18.8356 13.2233L18.7155 13.2722L18.846 13.4432C19.2367 13.9555 19.3057 14.585 19.0313 15.1342C18.7404 15.7162 18.2809 15.9993 17.6294 15.9979C17.2793 15.9972 17.1792 15.9713 16.6533 15.7453L16.0672 15.4934L15.9511 15.5957C15.8872 15.6521 15.6568 15.8547 15.439 16.0461L15.043 16.394L11.6941 16.3943C9.54755 16.3945 8.27564 16.4139 8.15143 16.4484C7.86183 16.5288 7.53534 16.8047 7.38581 17.0953L7.25292 17.3535V19.0192V20.685L7.40895 20.9671C7.58096 21.278 7.86666 21.5154 8.16573 21.5959C8.2864 21.6284 9.23407 21.6432 10.6601 21.6348L12.9599 21.6213L11.8641 20.9992C11.2614 20.657 10.7746 20.3708 10.7824 20.363C10.7901 20.3553 11.2865 20.5243 11.8853 20.7386L12.9743 21.1281L15.7391 21.1146L18.504 21.1011L18.7038 20.9414C18.9725 20.7266 19.0856 20.4888 19.0854 20.1389C19.0851 19.6994 18.836 19.3548 18.4148 19.211C18.2906 19.1686 17.5163 19.1507 15.8123 19.1507H13.3866L12.3743 18.7888C11.8175 18.5897 11.3886 18.4259 11.4213 18.4247C11.4541 18.4235 11.9105 18.4809 12.4356 18.5523C13.2407 18.6618 13.5945 18.6822 14.6929 18.6823L15.9955 18.6826L17.802 17.0442L19.6084 15.4058H21.9903C24.7454 15.4058 24.7673 15.403 25.1128 15.0106C25.5818 14.4777 25.4879 13.7269 24.904 13.3404L24.6847 13.1953L21.8202 13.1849C20.1281 13.1788 18.9065 13.1945 18.8356 13.2233ZM13.261 14.9816C13.1989 15.315 13.1357 15.6405 13.1206 15.7048L13.093 15.8219L13.9439 15.8214L14.7947 15.8209L15.0828 15.5744C15.2412 15.4388 15.3796 15.3044 15.3904 15.2757C15.4093 15.2254 15.2755 15.1638 13.9802 14.6268L13.3738 14.3754L13.261 14.9816ZM23.8193 15.9758L23.0136 16.0039L23.2629 16.1689C23.5684 16.371 23.8563 16.4262 24.1606 16.341C24.3794 16.2797 24.8636 15.921 24.7031 15.939C24.6601 15.9438 24.2625 15.9604 23.8193 15.9758ZM18.3742 17.2903C17.5681 18.0131 16.9069 18.6221 16.9049 18.6435C16.9029 18.665 17.2488 18.6826 17.6736 18.6826C18.0985 18.6826 18.5146 18.7065 18.5985 18.7357C18.6883 18.767 19.1783 18.783 19.7923 18.7747L20.8338 18.7606L20.5693 17.3822L20.3048 16.0039L20.0724 15.99L19.8399 15.976L18.3742 17.2903ZM3.72222 16.2958C3.16017 16.4278 2.50065 16.9704 2.25958 17.4991C1.75729 18.6007 2.2291 19.9053 3.31345 20.413C3.76201 20.623 4.44742 20.6733 4.89395 20.5289C6.36127 20.0545 6.90922 18.3227 5.98106 17.0933C5.47815 16.4273 4.55327 16.1007 3.72222 16.2958ZM19.4506 19.4497C19.451 19.4712 19.4851 19.5824 19.5263 19.6968C19.7963 20.4462 19.3413 21.3252 18.5566 21.5701C18.3633 21.6304 18.9112 21.6407 22.4405 21.6433L26.5495 21.6462L26.822 21.5194C27.2936 21.2998 27.5321 20.7844 27.4017 20.2664C27.3146 19.9207 26.9552 19.5572 26.616 19.4718C26.3413 19.4026 19.4492 19.3814 19.4506 19.4497ZM2.5445 22.3364C2.40906 22.4049 2.24819 22.547 2.15638 22.6792C2.01938 22.8766 1.99967 22.9495 1.99988 23.2601C2.00004 23.5706 2.0197 23.6432 2.15592 23.8366C2.36927 24.1395 2.68717 24.2999 3.07409 24.2999H3.378V25.6965C3.378 26.6023 3.3988 27.1552 3.43719 27.2698C3.60072 27.7582 3.98457 28.016 4.49949 27.9831C4.90987 27.957 5.195 27.7742 5.36565 27.4278C5.4793 27.1971 5.48528 27.1233 5.50177 25.7432L5.51909 24.2999H15.2883H25.0575L25.0754 25.7734L25.0931 27.2469L25.2492 27.4988C25.7229 28.2634 26.8536 28.1265 27.1405 27.2698C27.1788 27.1553 27.1996 26.604 27.1996 25.7034V24.3139L27.5684 24.2875C28.2191 24.2409 28.5789 23.8615 28.577 23.2238C28.5762 22.9516 28.552 22.8672 28.4203 22.6776C28.3296 22.547 28.1679 22.4046 28.0331 22.3364L27.8017 22.2194H15.2888H2.7759L2.5445 22.3364ZM13.8938 26.0326L13.9105 27.1431L14.0679 27.3975C14.2883 27.7538 14.6296 27.9563 15.0551 27.9834C15.4682 28.0097 15.687 27.9374 15.9827 27.6772C16.3619 27.3433 16.4071 27.161 16.4071 25.9643V24.95L15.1421 24.9361L13.8771 24.9222L13.8938 26.0326ZM16.9532 25.9308C16.9532 26.6825 16.9726 26.9943 17.0292 27.1548C17.2141 27.6788 17.6639 27.9936 18.2247 27.9916C18.6165 27.9902 18.8939 27.8695 19.1444 27.5916C19.4448 27.2585 19.4758 27.1061 19.4758 25.9643V24.95L18.2145 24.9361L16.9532 24.9222V25.9308Z"/>
</mask>
<path fill-rule="evenodd" clip-rule="evenodd" d="M16.0319 2.05925C15.3082 2.29471 14.7162 2.95491 14.5551 3.70623C14.3545 4.64177 14.875 5.68509 15.7531 6.10743C16.4092 6.42299 17.3144 6.35303 17.9141 5.94047C18.41 5.59927 18.7341 5.08086 18.8407 4.45806C18.9932 3.56798 18.4861 2.60944 17.6409 2.19001C17.3252 2.0333 17.241 2.0151 16.7712 2.0022C16.4347 1.99294 16.1737 2.01312 16.0319 2.05925ZM14.3144 7.11199C13.3714 7.36592 12.6297 8.17643 12.4661 9.13169C12.4199 9.40127 12.4339 9.81112 12.5394 11.2806C12.6591 12.9475 12.6797 13.1139 12.79 13.3102C12.8561 13.4279 12.9743 13.5715 13.0527 13.6295C13.1311 13.6874 14.1285 14.1261 15.2693 14.6044C17.5637 15.5665 17.6912 15.6009 18.1235 15.3751C18.779 15.0328 18.8588 14.0032 18.2602 13.6108C18.1564 13.5427 17.3342 13.1795 16.4331 12.8036C15.532 12.4277 14.7745 12.1007 14.7497 12.077C14.7057 12.0348 14.5615 10.3807 14.5662 9.97049C14.5678 9.82324 14.6417 10.0357 14.8191 10.6977C14.9569 11.2121 15.1015 11.6525 15.1403 11.6764C15.1791 11.7003 15.8619 11.9941 16.6576 12.3293L18.1045 12.9387L18.4521 12.7674C18.7155 12.6375 18.8972 12.588 19.2028 12.5629C19.5247 12.5365 19.6057 12.5131 19.6051 12.4464C19.6046 12.4006 19.5578 12.1075 19.501 11.7952C19.4443 11.483 19.4047 11.2206 19.413 11.2123C19.4213 11.204 19.5325 11.5004 19.66 11.871L19.8919 12.5448L21.2167 12.5449L22.5415 12.5451L22.2203 12.22L21.899 11.8949L21.3566 10.3537C21.0583 9.50607 20.7258 8.64428 20.6177 8.43857C20.2675 7.77213 19.7962 7.34012 19.2001 7.1393C18.8972 7.03725 18.7715 7.03195 16.7338 7.03522C15.0583 7.03788 14.5268 7.05473 14.3144 7.11199ZM18.8356 13.2233L18.7155 13.2722L18.846 13.4432C19.2367 13.9555 19.3057 14.585 19.0313 15.1342C18.7404 15.7162 18.2809 15.9993 17.6294 15.9979C17.2793 15.9972 17.1792 15.9713 16.6533 15.7453L16.0672 15.4934L15.9511 15.5957C15.8872 15.6521 15.6568 15.8547 15.439 16.0461L15.043 16.394L11.6941 16.3943C9.54755 16.3945 8.27564 16.4139 8.15143 16.4484C7.86183 16.5288 7.53534 16.8047 7.38581 17.0953L7.25292 17.3535V19.0192V20.685L7.40895 20.9671C7.58096 21.278 7.86666 21.5154 8.16573 21.5959C8.2864 21.6284 9.23407 21.6432 10.6601 21.6348L12.9599 21.6213L11.8641 20.9992C11.2614 20.657 10.7746 20.3708 10.7824 20.363C10.7901 20.3553 11.2865 20.5243 11.8853 20.7386L12.9743 21.1281L15.7391 21.1146L18.504 21.1011L18.7038 20.9414C18.9725 20.7266 19.0856 20.4888 19.0854 20.1389C19.0851 19.6994 18.836 19.3548 18.4148 19.211C18.2906 19.1686 17.5163 19.1507 15.8123 19.1507H13.3866L12.3743 18.7888C11.8175 18.5897 11.3886 18.4259 11.4213 18.4247C11.4541 18.4235 11.9105 18.4809 12.4356 18.5523C13.2407 18.6618 13.5945 18.6822 14.6929 18.6823L15.9955 18.6826L17.802 17.0442L19.6084 15.4058H21.9903C24.7454 15.4058 24.7673 15.403 25.1128 15.0106C25.5818 14.4777 25.4879 13.7269 24.904 13.3404L24.6847 13.1953L21.8202 13.1849C20.1281 13.1788 18.9065 13.1945 18.8356 13.2233ZM13.261 14.9816C13.1989 15.315 13.1357 15.6405 13.1206 15.7048L13.093 15.8219L13.9439 15.8214L14.7947 15.8209L15.0828 15.5744C15.2412 15.4388 15.3796 15.3044 15.3904 15.2757C15.4093 15.2254 15.2755 15.1638 13.9802 14.6268L13.3738 14.3754L13.261 14.9816ZM23.8193 15.9758L23.0136 16.0039L23.2629 16.1689C23.5684 16.371 23.8563 16.4262 24.1606 16.341C24.3794 16.2797 24.8636 15.921 24.7031 15.939C24.6601 15.9438 24.2625 15.9604 23.8193 15.9758ZM18.3742 17.2903C17.5681 18.0131 16.9069 18.6221 16.9049 18.6435C16.9029 18.665 17.2488 18.6826 17.6736 18.6826C18.0985 18.6826 18.5146 18.7065 18.5985 18.7357C18.6883 18.767 19.1783 18.783 19.7923 18.7747L20.8338 18.7606L20.5693 17.3822L20.3048 16.0039L20.0724 15.99L19.8399 15.976L18.3742 17.2903ZM3.72222 16.2958C3.16017 16.4278 2.50065 16.9704 2.25958 17.4991C1.75729 18.6007 2.2291 19.9053 3.31345 20.413C3.76201 20.623 4.44742 20.6733 4.89395 20.5289C6.36127 20.0545 6.90922 18.3227 5.98106 17.0933C5.47815 16.4273 4.55327 16.1007 3.72222 16.2958ZM19.4506 19.4497C19.451 19.4712 19.4851 19.5824 19.5263 19.6968C19.7963 20.4462 19.3413 21.3252 18.5566 21.5701C18.3633 21.6304 18.9112 21.6407 22.4405 21.6433L26.5495 21.6462L26.822 21.5194C27.2936 21.2998 27.5321 20.7844 27.4017 20.2664C27.3146 19.9207 26.9552 19.5572 26.616 19.4718C26.3413 19.4026 19.4492 19.3814 19.4506 19.4497ZM2.5445 22.3364C2.40906 22.4049 2.24819 22.547 2.15638 22.6792C2.01938 22.8766 1.99967 22.9495 1.99988 23.2601C2.00004 23.5706 2.0197 23.6432 2.15592 23.8366C2.36927 24.1395 2.68717 24.2999 3.07409 24.2999H3.378V25.6965C3.378 26.6023 3.3988 27.1552 3.43719 27.2698C3.60072 27.7582 3.98457 28.016 4.49949 27.9831C4.90987 27.957 5.195 27.7742 5.36565 27.4278C5.4793 27.1971 5.48528 27.1233 5.50177 25.7432L5.51909 24.2999H15.2883H25.0575L25.0754 25.7734L25.0931 27.2469L25.2492 27.4988C25.7229 28.2634 26.8536 28.1265 27.1405 27.2698C27.1788 27.1553 27.1996 26.604 27.1996 25.7034V24.3139L27.5684 24.2875C28.2191 24.2409 28.5789 23.8615 28.577 23.2238C28.5762 22.9516 28.552 22.8672 28.4203 22.6776C28.3296 22.547 28.1679 22.4046 28.0331 22.3364L27.8017 22.2194H15.2888H2.7759L2.5445 22.3364ZM13.8938 26.0326L13.9105 27.1431L14.0679 27.3975C14.2883 27.7538 14.6296 27.9563 15.0551 27.9834C15.4682 28.0097 15.687 27.9374 15.9827 27.6772C16.3619 27.3433 16.4071 27.161 16.4071 25.9643V24.95L15.1421 24.9361L13.8771 24.9222L13.8938 26.0326ZM16.9532 25.9308C16.9532 26.6825 16.9726 26.9943 17.0292 27.1548C17.2141 27.6788 17.6639 27.9936 18.2247 27.9916C18.6165 27.9902 18.8939 27.8695 19.1444 27.5916C19.4448 27.2585 19.4758 27.1061 19.4758 25.9643V24.95L18.2145 24.9361L16.9532 24.9222V25.9308Z" stroke="white" stroke-width="2.4" mask="url(#path-1-outside-1_258_22)"/>
</svg>
